<?xml version="1.0" encoding="UTF-8" standalone="no"?>
<!DOCTYPE svg PUBLIC "-//W3C//DTD SVG 1.1//EN" "http://www.w3.org/Graphics/SVG/1.1/DTD/svg11.dtd">
<svg xmlns:xl="http://www.w3.org/1999/xlink" xmlns:dc="http://purl.org/dc/elements/1.1/" version="1.1" xmlns="http://www.w3.org/2000/svg" viewBox="41 54 151 184" width="151" height="184">
  <defs/>
  <metadata> Produced by OmniGraffle 7.9.4 
    <dc:date>2019-01-27 11:17:14 +0000</dc:date>
  </metadata>
  <g id="Canvas_2" fill="none" stroke-opacity="1" fill-opacity="1" stroke="none" stroke-dasharray="none">
    <title>Canvas 2</title>
    <rect fill="white" x="41" y="54" width="151" height="184"/>
    <g id="Canvas_2: Layer 2">
      <title>Layer 2</title>
      <g id="Graphic_212">
        <rect x="41.5" y="54" width="150" height="184" id="path"/>
        <clipPath id="clip_path">
          <use xl:href="#path"/>
        </clipPath>
        <g clip-path="url(#clip_path)">
          <image xl:href="image3.pdf" width="150" height="184" transform="translate(41.5 54)"/>
        </g>
      </g>
      <g id="Group_167">
        <g id="Graphic_187">
          <path d="M 102.61856 181.70826 C 102.7417 181.70826 102.85763 181.75289 102.94475 181.8342 C 103.03186 181.9155 103.07967 182.0237 103.07967 182.13863 C 103.07967 182.25356 103.03186 182.36176 102.94475 182.44307 C 102.85829 182.52376 102.74301 182.56839 102.61987 182.56839 C 102.56878 182.56839 102.51835 182.56044 102.46988 182.54577 L 102.25438 182.47791 L 102.18168 182.27679 C 102.12535 182.11968 102.16727 181.95034 102.29106 181.8342 C 102.37949 181.7535 102.49542 181.70826 102.61856 181.70826 Z M 92.66858 208.38566 L 92.87228 208.4798 C 93.03144 208.55377 93.13034 208.7011 93.13034 208.86493 C 93.13034 209.10274 92.92337 209.29592 92.66858 209.29592 C 92.41378 209.29592 92.20681 209.10274 92.20681 208.86493 C 92.20681 208.7011 92.30571 208.55316 92.46487 208.4792 Z M 102.61856 181.0358 C 102.31595 181.0358 102.01335 181.1434 101.78279 181.3592 C 101.45464 181.66547 101.36097 182.10745 101.49983 182.49197 L 95.92192 187.69797 L 95.92192 194.30023 L 92.14458 197.82572 L 92.14458 207.87826 C 91.75486 208.0586 91.48631 208.43273 91.48631 208.86616 C 91.48631 209.47564 92.01555 209.9696 92.66858 209.9696 C 93.3216 209.9696 93.85084 209.47564 93.85084 208.86616 C 93.85084 208.43273 93.58229 208.0586 93.19257 207.87826 L 93.19257 198.2304 L 96.96991 194.70493 L 96.96991 188.10267 L 102.24063 183.18338 C 102.36377 183.22189 102.49215 183.24145 102.61987 183.24145 C 102.92182 183.24145 103.22377 183.13447 103.45367 182.91928 C 103.91544 182.4883 103.91544 181.78957 103.45367 181.3592 C 103.22377 181.14401 102.92117 181.0358 102.61856 181.0358 Z" fill="#ccc"/>
        </g>
        <g id="Graphic_186">
          <path d="M 161.3821 179.8646 C 161.50524 179.8646 161.62117 179.90922 161.70829 179.99053 C 161.83273 180.10668 161.87465 180.27601 161.81767 180.43312 L 161.74496 180.63425 L 161.53013 180.7021 C 161.48166 180.71739 161.43188 180.72472 161.38079 180.72472 C 161.25765 180.72472 161.14237 180.6801 161.05591 180.5994 C 160.9688 180.5181 160.92098 180.4099 160.92098 180.29496 C 160.92098 180.18003 160.9688 180.07183 161.05591 179.99053 C 161.14303 179.90922 161.25896 179.8646 161.3821 179.8646 Z M 167.96542 188.59608 C 168.08856 188.59608 168.20384 188.6407 168.2903 188.7214 C 168.37741 188.8027 168.42523 188.9109 168.42523 189.02584 C 168.42523 189.14077 168.37741 189.24897 168.2903 189.33027 C 168.20319 189.41158 168.08725 189.4562 167.96411 189.4562 C 167.84098 189.4562 167.72504 189.41158 167.63793 189.33027 C 167.51348 189.21412 167.47156 189.04479 167.52854 188.88768 L 167.60125 188.68655 L 167.81674 188.6187 C 167.8639 188.60342 167.91433 188.59608 167.96542 188.59608 Z M 161.3821 179.19214 C 161.0795 179.19214 160.77689 179.29973 160.54633 179.51553 C 160.08456 179.9465 160.08456 180.64525 160.54633 181.07562 C 160.77689 181.2908 161.07818 181.39778 161.38013 181.39778 C 161.50851 181.39778 161.6369 181.37822 161.75937 181.3397 L 163.55864 183.019 L 163.55864 185.60672 L 166.84408 188.6731 C 166.70522 189.05763 166.79888 189.4996 167.12703 189.80588 C 167.3576 190.02107 167.6602 190.12927 167.9628 190.12927 C 168.26541 190.12927 168.56802 190.02168 168.79857 189.80588 C 169.26034 189.3749 169.26034 188.67616 168.79857 188.2458 C 168.56802 188.0306 168.26672 187.92363 167.96477 187.92363 C 167.8364 187.92363 167.70801 187.9432 167.58553 187.9817 L 164.60728 185.20203 L 164.60728 182.61431 L 162.50083 180.6483 C 162.63968 180.26379 162.54602 179.8218 162.21787 179.51553 C 161.98731 179.29973 161.6847 179.19214 161.3821 179.19214 Z" fill="#ccc"/>
        </g>
        <g id="Graphic_185">
          <path d="M 89.18226 205.07246 C 89.43705 205.07246 89.64403 205.26563 89.64403 205.50344 C 89.64403 205.66727 89.54513 205.8152 89.38596 205.88857 L 89.18226 205.9827 L 88.97856 205.88857 C 88.8194 205.8152 88.72049 205.66727 88.72049 205.50344 C 88.72049 205.26563 88.92813 205.07246 89.18226 205.07246 Z M 93.0644 213.09359 C 93.18754 213.09359 93.30282 213.13821 93.38928 213.2189 C 93.47639 213.30021 93.5242 213.40842 93.5242 213.52335 C 93.5242 213.63827 93.47639 213.74648 93.38928 213.82778 C 93.30216 213.9091 93.18623 213.95371 93.06309 213.95371 C 92.93995 213.95371 92.82402 213.9091 92.7369 213.82778 C 92.61246 213.71163 92.57054 213.5423 92.62752 213.38519 L 92.70022 213.18406 L 92.91572 213.1162 C 92.96288 213.10092 93.01331 213.09359 93.0644 213.09359 Z M 89.18226 204.4 C 88.52923 204.4 88 204.89395 88 205.50344 C 88 205.93686 88.26855 206.311 88.65827 206.49133 L 88.65827 210.10484 L 91.94371 213.17122 C 91.80485 213.55574 91.89851 213.99773 92.22667 214.304 C 92.45722 214.51919 92.75983 214.6274 93.06243 214.6274 C 93.36504 214.6274 93.66765 214.5198 93.8982 214.304 C 94.35997 213.87302 94.35997 213.17428 93.8982 212.7439 C 93.66765 212.52873 93.36635 212.42175 93.0644 212.42175 C 92.93602 212.42175 92.80764 212.4413 92.68516 212.47982 L 89.70691 209.70015 L 89.70691 206.49194 C 90.09663 206.3116 90.36518 205.93747 90.36518 205.50405 C 90.36452 204.89395 89.83529 204.4 89.18226 204.4 Z" fill="#ccc"/>
        </g>
        <g id="Graphic_184">
          <path d="M 93.14023 170.99434 C 93.39503 170.99434 93.602 171.18752 93.602 171.42532 C 93.602 171.58915 93.5031 171.7371 93.34394 171.81045 L 93.14023 171.9046 L 92.93653 171.81045 C 92.77737 171.7371 92.67846 171.58915 92.67846 171.42532 C 92.67846 171.18752 92.8861 170.99434 93.14023 170.99434 Z M 90.78226 188.54534 L 90.98596 188.63948 C 91.14513 188.71284 91.24403 188.86078 91.24403 189.02461 C 91.24403 189.26242 91.03705 189.4556 90.78226 189.4556 C 90.52747 189.4556 90.32049 189.26242 90.32049 189.02461 C 90.32049 188.86078 90.4194 188.71284 90.57856 188.63948 Z M 93.14023 170.32189 C 92.48721 170.32189 91.95797 170.81583 91.95797 171.42532 C 91.95797 171.85874 92.22652 172.23287 92.61624 172.41321 L 92.61624 176.7218 L 90.25827 178.92255 L 90.25827 188.03794 C 89.86855 188.21828 89.6 188.59241 89.6 189.02584 C 89.6 189.63532 90.12923 190.12927 90.78226 190.12927 C 91.43529 190.12927 91.96452 189.63532 91.96452 189.02584 C 91.96452 188.59241 91.69598 188.21828 91.30626 188.03794 L 91.30626 179.32724 L 93.66423 177.1265 L 93.66423 172.4126 C 94.05395 172.23226 94.32249 171.85813 94.32249 171.4247 C 94.32249 170.81583 93.79326 170.32189 93.14023 170.32189 Z" fill="#ccc"/>
        </g>
        <g id="Graphic_183">
          <path d="M 107.68263 181.70826 C 107.93742 181.70826 108.1444 181.90144 108.1444 182.13924 C 108.1444 182.30307 108.0455 182.45101 107.88633 182.52437 L 107.68263 182.61852 L 107.47893 182.52437 C 107.31977 182.4504 107.22086 182.30307 107.22086 182.13924 C 107.22086 181.90144 107.4285 181.70826 107.68263 181.70826 Z M 104.98013 186.42826 C 105.03122 186.42826 105.08166 186.4362 105.13013 186.45088 L 105.34562 186.51874 L 105.41832 186.71986 C 105.47465 186.87697 105.43273 187.0463 105.30894 187.16246 C 105.22183 187.24376 105.10589 187.2884 104.98275 187.2884 C 104.85961 187.2884 104.74368 187.24376 104.65657 187.16246 C 104.47644 186.99435 104.47644 186.72108 104.65657 186.55297 C 104.74172 186.47228 104.857 186.42826 104.98013 186.42826 Z M 107.68263 181.0358 C 107.0296 181.0358 106.50037 181.52975 106.50037 182.13924 C 106.50037 182.57267 106.76892 182.9468 107.15864 183.12713 L 107.15864 184.1346 L 105.35937 185.81389 C 105.23624 185.77537 105.10786 185.7558 104.98013 185.7558 C 104.67818 185.7558 104.37623 185.8628 104.14633 186.07798 C 103.68456 186.50896 103.68456 187.2077 104.14633 187.63807 C 104.37689 187.85325 104.67949 187.96145 104.9821 187.96145 C 105.2847 187.96145 105.58731 187.85386 105.81787 187.63807 C 106.14602 187.3318 106.23968 186.8898 106.10082 186.5053 L 108.20728 184.53928 L 108.20728 183.12652 C 108.597 182.94618 108.86555 182.57206 108.86555 182.13863 C 108.86489 181.52975 108.33566 181.0358 107.68263 181.0358 Z" fill="#ccc"/>
        </g>
        <g id="Graphic_182">
          <path d="M 136.76884 203.27246 C 137.02364 203.27246 137.23061 203.46563 137.23061 203.70344 C 137.23061 203.86727 137.13171 204.0152 136.97255 204.08857 L 136.76884 204.1827 L 136.56514 204.08857 C 136.40598 204.0146 136.30708 203.86727 136.30708 203.70344 C 136.30708 203.46563 136.5147 203.27246 136.76884 203.27246 Z M 124.98226 212.0724 C 125.1578 212.0724 125.31631 212.16472 125.39491 212.31327 L 125.49578 212.5034 L 125.39491 212.6935 C 125.31565 212.84206 125.1578 212.93437 124.98226 212.93437 C 124.72747 212.93437 124.5205 212.7412 124.5205 212.5034 C 124.5205 212.26559 124.72747 212.0724 124.98226 212.0724 Z M 136.76884 202.6 C 136.11582 202.6 135.58658 203.09395 135.58658 203.70344 C 135.58658 204.13686 135.85513 204.511 136.24485 204.69133 L 136.24485 206.79916 L 130.65711 212.01433 L 126.04073 212.01433 C 125.8475 211.6506 125.44665 211.39996 124.98226 211.39996 C 124.32924 211.39996 123.8 211.8939 123.8 212.5034 C 123.8 213.11288 124.32924 213.60682 124.98226 213.60682 C 125.44665 213.60682 125.8475 213.35618 126.04073 212.99245 L 131.09137 212.99245 L 137.2935 207.20386 L 137.2935 204.69072 C 137.68321 204.51038 137.95176 204.13625 137.95176 203.70282 C 137.9511 203.09395 137.42187 202.6 136.76884 202.6 Z" fill="#ccc"/>
        </g>
        <g id="Graphic_181">
          <path d="M 173.35237 194.07246 C 173.4755 194.07246 173.59144 194.11708 173.67856 194.19839 C 173.803 194.31454 173.84492 194.48387 173.78794 194.64098 L 173.71524 194.8421 L 173.49974 194.90996 C 173.45127 194.92525 173.4015 194.93258 173.34975 194.93258 C 173.22661 194.93258 173.11133 194.88796 173.02487 194.80726 C 172.93776 194.72596 172.88995 194.61775 172.88995 194.50282 C 172.88995 194.3879 172.93776 194.2797 173.02487 194.19839 C 173.11199 194.11708 173.22923 194.07246 173.35237 194.07246 Z M 168.98292 200.99504 C 169.15846 200.99504 169.31696 201.08735 169.39556 201.2359 L 169.49643 201.42603 L 169.39556 201.61615 C 169.3163 201.7647 169.15846 201.857 168.98292 201.857 C 168.72813 201.857 168.52115 201.66383 168.52115 201.42603 C 168.52115 201.18822 168.72813 200.99504 168.98292 200.99504 Z M 173.35237 193.4 C 173.04976 193.4 172.74716 193.5076 172.5166 193.7234 C 172.05483 194.15437 172.05483 194.8531 172.5166 195.28348 C 172.74716 195.49866 173.04845 195.60565 173.3504 195.60565 C 173.47878 195.60565 173.60716 195.58608 173.72965 195.54757 L 176.4911 198.1249 L 173.47813 200.93697 L 170.04073 200.93697 C 169.8475 200.57323 169.44665 200.3226 168.98226 200.3226 C 168.32924 200.3226 167.8 200.81654 167.8 201.42603 C 167.8 202.0355 168.32924 202.52946 168.98226 202.52946 C 169.44665 202.52946 169.8475 202.27882 170.04073 201.91508 L 173.91239 201.91508 L 177.97334 198.1249 L 174.4711 194.85617 C 174.60995 194.47165 174.5163 194.02966 174.18814 193.7234 C 173.95758 193.5082 173.65498 193.4 173.35237 193.4 Z" fill="#ccc"/>
        </g>
        <g id="Graphic_180">
          <path d="M 145.3821 148.07245 C 145.50524 148.07245 145.62117 148.11708 145.70829 148.19839 C 145.83273 148.31454 145.87465 148.48387 145.81767 148.64098 L 145.74496 148.8421 L 145.52947 148.90996 C 145.481 148.92525 145.43122 148.93258 145.37948 148.93258 C 145.25634 148.93258 145.14106 148.88796 145.0546 148.80726 C 144.87448 148.63915 144.87448 148.36589 145.0546 148.19777 C 145.14303 148.1177 145.25896 148.07245 145.3821 148.07245 Z M 148.42847 150.9151 C 148.5516 150.9151 148.66688 150.95972 148.75334 151.04041 C 148.93347 151.20853 148.93347 151.48179 148.75334 151.6499 C 148.66623 151.7312 148.5503 151.77583 148.42716 151.77583 C 148.30402 151.77583 148.18808 151.7312 148.10097 151.6499 C 147.97652 151.53375 147.9346 151.36441 147.99159 151.2073 L 148.0643 151.00618 L 148.27978 150.93832 C 148.32694 150.92243 148.37738 150.9151 148.42847 150.9151 Z M 145.3821 147.4 C 145.0795 147.4 144.77689 147.5076 144.54633 147.72339 C 144.08456 148.15437 144.08456 148.85311 144.54633 149.28348 C 144.77689 149.49866 145.07818 149.60565 145.38013 149.60565 C 145.50851 149.60565 145.63689 149.58608 145.75937 149.54757 L 147.30712 150.99212 C 147.16826 151.37664 147.26193 151.81862 147.59008 152.1249 C 147.82063 152.34008 148.12324 152.44828 148.42585 152.44828 C 148.72845 152.44828 149.03106 152.3407 149.26162 152.1249 C 149.72339 151.69391 149.72339 150.99518 149.26162 150.5648 C 149.03106 150.34962 148.72976 150.24264 148.42781 150.24264 C 148.29943 150.24264 148.17106 150.2622 148.04857 150.30072 L 146.50083 148.85617 C 146.63968 148.47165 146.54602 148.02966 146.21787 147.72339 C 145.98731 147.5082 145.6847 147.4 145.3821 147.4 Z" fill="#ccc"/>
        </g>
        <g id="Graphic_179">
          <path d="M 125.8462 161.41763 C 125.96934 161.41763 126.08527 161.46225 126.17238 161.54356 C 126.3525 161.71167 126.3525 161.98493 126.17238 162.15305 C 126.08592 162.23374 125.97065 162.27837 125.8475 162.27837 C 125.79642 162.27837 125.74598 162.27042 125.69751 162.25575 L 125.48202 162.18789 L 125.40932 161.98677 C 125.35299 161.82966 125.39491 161.66032 125.5187 161.54417 C 125.60712 161.46286 125.72306 161.41763 125.8462 161.41763 Z M 125.84816 166.46102 C 125.9713 166.46102 126.08658 166.50564 126.17304 166.58634 C 126.35316 166.75445 126.35316 167.02771 126.17304 167.19582 C 126.08592 167.27713 125.96999 167.32176 125.84685 167.32176 C 125.72371 167.32176 125.60778 167.27713 125.52067 167.19582 C 125.39622 167.07967 125.3543 166.91034 125.41128 166.75323 L 125.48399 166.5521 L 125.69948 166.48425 C 125.74664 166.46835 125.79707 166.46102 125.84816 166.46102 Z M 125.8462 160.74517 C 125.54359 160.74517 125.24098 160.85277 125.01043 161.06856 C 124.68228 161.37483 124.58861 161.81682 124.72747 162.20134 L 123.8 163.06697 L 123.8 165.67303 L 124.72747 166.53866 C 124.58861 166.92318 124.68228 167.36516 125.01043 167.67143 C 125.24098 167.88662 125.54359 167.99482 125.8462 167.99482 C 126.1488 167.99482 126.45141 167.88723 126.68197 167.67143 C 127.14374 167.24045 127.14374 166.54171 126.68197 166.11134 C 126.45141 165.89616 126.14946 165.78918 125.84816 165.78918 C 125.71978 165.78918 125.5914 165.80874 125.46892 165.84725 L 124.84864 165.26833 L 124.84864 163.47289 L 125.46892 162.89397 C 125.59206 162.93248 125.72044 162.95204 125.84816 162.95204 C 126.15011 162.95204 126.45206 162.84506 126.68197 162.62987 C 127.14374 162.1989 127.14374 161.50016 126.68197 161.06979 C 126.45141 160.85338 126.1488 160.74517 125.8462 160.74517 Z" fill="#ccc"/>
        </g>
        <g id="Graphic_178">
          <path d="M 90.7821 160.47467 C 90.90524 160.47467 91.02117 160.5193 91.10828 160.6006 C 91.23273 160.71675 91.27465 160.88608 91.21767 161.0432 L 91.14496 161.24432 L 90.92947 161.31217 C 90.881 161.32746 90.83122 161.3348 90.77948 161.3348 C 90.65634 161.3348 90.54106 161.29017 90.4546 161.20947 C 90.36749 161.12817 90.31967 161.01996 90.31967 160.90503 C 90.31967 160.7901 90.36749 160.6819 90.4546 160.6006 C 90.54172 160.5193 90.65896 160.47467 90.7821 160.47467 Z M 108.80682 167.39725 C 109.06162 167.39725 109.2686 167.59043 109.2686 167.82824 C 109.2686 168.06604 109.06162 168.25922 108.80682 168.25922 C 108.63129 168.25922 108.47278 168.1669 108.39418 168.01836 L 108.29331 167.82824 L 108.39418 167.63812 C 108.47278 167.48956 108.63129 167.39725 108.80682 167.39725 Z M 90.7821 159.80221 C 90.47949 159.80221 90.17689 159.9098 89.94633 160.1256 C 89.48456 160.55658 89.48456 161.25532 89.94633 161.6857 C 90.17689 161.90088 90.47818 162.00786 90.78013 162.00786 C 90.90851 162.00786 91.03689 161.9883 91.15937 161.94978 L 97.98177 168.3173 L 107.74836 168.3173 C 107.94158 168.68103 108.34244 168.93167 108.80682 168.93167 C 109.45985 168.93167 109.98909 168.43772 109.98909 167.82824 C 109.98909 167.21875 109.45985 166.7248 108.80682 166.7248 C 108.34244 166.7248 107.94158 166.97544 107.74836 167.33918 L 98.41603 167.33918 L 91.90082 161.25838 C 92.03968 160.87386 91.94602 160.43187 91.61787 160.1256 C 91.38731 159.91042 91.0847 159.80221 90.7821 159.80221 Z" fill="#ccc"/>
        </g>
        <g id="Graphic_177">
          <path d="M 158.95715 199.67246 C 159.0803 199.67246 159.19623 199.71708 159.28334 199.79839 C 159.46346 199.9665 159.46346 200.23976 159.28334 200.40787 C 159.19688 200.48857 159.0816 200.5332 158.95846 200.5332 C 158.90738 200.5332 158.85694 200.52525 158.80847 200.51058 L 158.59298 200.44272 L 158.52028 200.2416 C 158.46395 200.08448 158.50587 199.91515 158.62966 199.799 C 158.71808 199.7177 158.83402 199.67246 158.95715 199.67246 Z M 154.1816 206.54308 L 154.38531 206.63723 C 154.54447 206.7112 154.64338 206.85852 154.64338 207.02297 C 154.64338 207.26077 154.4364 207.45395 154.1816 207.45395 C 153.92682 207.45395 153.71984 207.26077 153.71984 207.02297 C 153.71984 206.85913 153.81874 206.7112 153.9779 206.63723 Z M 158.95715 199 C 158.65455 199 158.35194 199.1076 158.12139 199.3234 C 157.79323 199.62966 157.69957 200.07165 157.83843 200.45617 L 153.65827 204.35761 L 153.65827 206.03508 C 153.26855 206.21541 153 206.58954 153 207.02297 C 153 207.63245 153.52924 208.1264 154.18226 208.1264 C 154.83529 208.1264 155.36452 207.63245 155.36452 207.02297 C 155.36452 206.58954 155.09598 206.21541 154.70626 206.03508 L 154.70626 204.76292 L 158.57988 201.14757 C 158.70302 201.18608 158.8314 201.20565 158.95912 201.20565 C 159.26107 201.20565 159.56302 201.09867 159.79292 200.88348 C 160.2547 200.4525 160.2547 199.75376 159.79292 199.3234 C 159.56237 199.1082 159.25976 199 158.95715 199 Z" fill="#ccc"/>
        </g>
        <g id="Graphic_176">
          <path d="M 141.18073 175.67245 C 141.43553 175.67245 141.6425 175.86563 141.6425 176.10344 C 141.6425 176.26727 141.5436 176.4152 141.38444 176.48857 L 141.18073 176.5827 L 140.97703 176.48857 C 140.81787 176.4146 140.71897 176.26727 140.71897 176.10344 C 140.71897 175.86563 140.9266 175.67245 141.18073 175.67245 Z M 141.17746 194.3758 C 141.43225 194.3758 141.63923 194.56897 141.63923 194.80678 C 141.63923 195.04458 141.43225 195.23776 141.17746 195.23776 C 141.00192 195.23776 140.84341 195.14545 140.76481 194.9969 L 140.66395 194.80678 L 140.76481 194.61665 C 140.84341 194.4681 141.00192 194.3758 141.17746 194.3758 Z M 141.18073 175 C 140.5277 175 139.99847 175.49395 139.99847 176.10344 C 139.99847 176.53686 140.26702 176.91099 140.65674 177.09133 L 140.65674 190.20292 L 135.2 195.29583 L 140.11965 195.29583 C 140.31287 195.65957 140.71373 195.9102 141.17811 195.9102 C 141.83114 195.9102 142.36038 195.41626 142.36038 194.80678 C 142.36038 194.1973 141.83114 193.70334 141.17811 193.70334 C 140.71373 193.70334 140.31287 193.95398 140.11965 194.31772 L 137.73024 194.31772 L 141.70538 190.60762 L 141.70538 177.09072 C 142.0951 176.91038 142.36365 176.53625 142.36365 176.10282 C 142.363 175.49395 141.83376 175 141.18073 175 Z" fill="#ccc"/>
        </g>
        <g id="Graphic_175">
          <path d="M 84.71348 149.7952 C 84.83662 149.7952 84.95255 149.83983 85.03966 149.92114 C 85.21979 150.08925 85.21979 150.36251 85.03966 150.53063 C 84.95321 150.61132 84.83793 150.65595 84.71479 150.65595 C 84.6637 150.65595 84.61326 150.648 84.5648 150.63333 L 84.3493 150.56547 L 84.2766 150.36435 C 84.22027 150.20724 84.26219 150.0379 84.38598 149.92175 C 84.47441 149.84045 84.59034 149.7952 84.71348 149.7952 Z M 74.98226 169.87035 L 75.18596 169.9645 C 75.34513 170.03846 75.44403 170.1858 75.44403 170.35024 C 75.44403 170.58804 75.23705 170.78122 74.98226 170.78122 C 74.72747 170.78122 74.52049 170.58804 74.52049 170.35024 C 74.52049 170.1864 74.6194 170.03846 74.77856 169.9645 Z M 84.71348 149.12276 C 84.41087 149.12276 84.10827 149.23035 83.87771 149.44614 C 83.54956 149.75242 83.45589 150.1944 83.59475 150.57892 L 82.66728 151.44455 L 82.66728 155.55935 L 78.25853 155.55935 L 74.45827 159.10623 L 74.45827 169.36295 C 74.06855 169.5433 73.8 169.91742 73.8 170.35085 C 73.8 170.96033 74.329235 171.45428 74.98226 171.45428 C 75.63529 171.45428 76.16452 170.96033 76.16452 170.35085 C 76.16452 169.91742 75.89598 169.5433 75.506255 169.36295 L 75.506255 159.51153 L 78.69279 156.53746 L 83.71593 156.53746 L 83.71593 151.84924 L 84.3362 151.27032 C 84.45934 151.30884 84.58772 151.3284 84.71544 151.3284 C 85.0174 151.3284 85.31935 151.22142 85.54925 151.00623 C 86.01102 150.57525 86.01102 149.87651 85.54925 149.44614 C 85.31869 149.23096 85.01608 149.12276 84.71348 149.12276 Z" fill="#ccc"/>
        </g>
        <g id="Graphic_174">
          <path d="M 160.76832 153.9745 C 161.0231 153.9745 161.23009 154.16768 161.23009 154.40548 C 161.23009 154.64328 161.0231 154.83646 160.76832 154.83646 C 160.59278 154.83646 160.43427 154.74415 160.35567 154.5956 L 160.2548 154.40548 L 160.35567 154.21536 C 160.43427 154.0668 160.59278 153.9745 160.76832 153.9745 Z M 157.44882 161.02057 C 157.57196 161.02057 157.68723 161.0652 157.7737 161.1459 C 157.95382 161.314 157.95382 161.58727 157.7737 161.75538 C 157.68658 161.83669 157.57065 161.88131 157.4475 161.88131 C 157.32437 161.88131 157.20844 161.83669 157.12132 161.75538 C 156.99687 161.63923 156.95495 161.4699 157.01194 161.31279 L 157.08464 161.11166 L 157.30013 161.0438 C 157.3473 161.02791 157.39773 161.02057 157.44882 161.02057 Z M 160.76832 153.30205 C 160.30393 153.30205 159.90307 153.55269 159.70985 153.91642 L 157.01718 153.91642 L 155.4 155.42577 L 155.4 160.23258 L 156.32747 161.09821 C 156.18861 161.48273 156.28228 161.92472 156.61043 162.23099 C 156.84098 162.44617 157.1436 162.55438 157.4462 162.55438 C 157.7488 162.55438 158.05141 162.44678 158.28197 162.23099 C 158.74374 161.8 158.74374 161.10127 158.28197 160.6709 C 158.05141 160.45571 157.74946 160.34873 157.44816 160.34873 C 157.31978 160.34873 157.1914 160.3683 157.06892 160.4068 L 156.44864 159.82789 L 156.44864 155.83169 L 157.45144 154.89576 L 159.70985 154.89576 C 159.90307 155.2595 160.30393 155.51013 160.76832 155.51013 C 161.42134 155.51013 161.95058 155.01619 161.95058 154.4067 C 161.95058 153.79722 161.42134 153.30205 160.76832 153.30205 Z" fill="#ccc"/>
        </g>
        <g id="Graphic_173">
          <path d="M 142.62237 168.04311 C 142.74551 168.04311 142.86079 168.08774 142.94725 168.16844 C 143.03436 168.24974 143.08218 168.35794 143.08218 168.47287 C 143.08218 168.5878 143.03436 168.696 142.94725 168.77731 C 142.86013 168.85862 142.7442 168.90324 142.62106 168.90324 C 142.49792 168.90324 142.38199 168.85862 142.29488 168.77731 C 142.17043 168.66116 142.1285 168.49182 142.1855 168.33471 L 142.2582 168.1336 L 142.47369 168.06573 C 142.52085 168.05045 142.57128 168.04311 142.62237 168.04311 Z M 136.38226 169.87035 L 136.58597 169.9645 C 136.74513 170.03846 136.84403 170.1858 136.84403 170.34963 C 136.84403 170.58743 136.63705 170.7806 136.38226 170.7806 C 136.12747 170.7806 135.9205 170.58743 135.9205 170.34963 C 135.9205 170.1858 136.0194 170.03785 136.17856 169.9645 Z M 135.85827 161.4702 L 135.85827 169.36295 C 135.46855 169.5433 135.2 169.91742 135.2 170.35085 C 135.2 170.96033 135.72924 171.45428 136.38226 171.45428 C 137.03529 171.45428 137.56452 170.96033 137.56452 170.35085 C 137.56452 169.91742 137.29598 169.5433 136.90626 169.36295 L 136.90626 163.83173 L 141.50168 168.12075 C 141.36282 168.50527 141.45649 168.94726 141.78464 169.25353 C 142.0152 169.46871 142.3178 169.57692 142.6204 169.57692 C 142.92301 169.57692 143.22562 169.46932 143.45618 169.25353 C 143.91795 168.82255 143.91795 168.1238 143.45618 167.69344 C 143.22562 167.47825 142.92432 167.37127 142.62237 167.37127 C 142.494 167.37127 142.36562 167.39084 142.24313 167.42935 L 135.85827 161.4702 Z" fill="#ccc"/>
        </g>
        <g id="Graphic_172">
          <path d="M 125.00936 189.67248 C 125.26415 189.67248 125.47113 189.86566 125.47113 190.10346 C 125.47113 190.2673 125.37223 190.41523 125.21307 190.4886 L 125.00936 190.58273 L 124.80566 190.4886 C 124.6465 190.41462 124.5476 190.2673 124.5476 190.10346 C 124.5476 189.86566 124.75523 189.67248 125.00936 189.67248 Z M 121.12788 205.39624 C 121.17897 205.39624 121.2294 205.4042 121.27787 205.41886 L 121.49337 205.48672 L 121.56607 205.68784 C 121.6224 205.84495 121.58048 206.0143 121.45669 206.13044 C 121.36957 206.21174 121.25364 206.25637 121.1305 206.25637 C 121.00736 206.25637 120.89143 206.21174 120.80431 206.13044 C 120.7172 206.04913 120.66939 205.94093 120.66939 205.826 C 120.66939 205.71107 120.7172 205.60287 120.80431 205.52156 C 120.88946 205.44026 121.00474 205.39624 121.12788 205.39624 Z M 125.00936 189.00003 C 124.35634 189.00003 123.8271 189.49397 123.8271 190.10346 C 123.8271 190.53688 124.09565 190.91101 124.48537 191.09135 L 124.48537 202.0022 L 121.50712 204.78187 C 121.38398 204.74335 121.2556 204.7238 121.12788 204.7238 C 120.82593 204.7238 120.52398 204.83077 120.29408 205.04596 C 119.8323 205.47694 119.8323 206.17568 120.29408 206.60605 C 120.52463 206.82123 120.82724 206.92943 121.12984 206.92943 C 121.43245 206.92943 121.73506 206.82184 121.96561 206.60605 C 122.29377 206.29978 122.38743 205.8578 122.24857 205.47327 L 125.53401 202.4069 L 125.53401 191.09074 C 125.92373 190.9104 126.19228 190.53627 126.19228 190.10285 C 126.19162 189.49397 125.66239 189.00003 125.00936 189.00003 Z" fill="#ccc"/>
        </g>
        <g id="Graphic_170">
          <path d="M 165.38226 147.84413 C 165.5578 147.84413 165.7163 147.93644 165.7949 148.08499 L 165.89578 148.2751 L 165.7949 148.46523 C 165.71565 148.61378 165.5578 148.70609 165.38226 148.70609 C 165.12747 148.70609 164.9205 148.51291 164.9205 148.2751 C 164.9205 148.0373 165.12747 147.84413 165.38226 147.84413 Z M 168.91595 151.0933 L 169.11965 151.18744 C 169.27881 151.2614 169.37771 151.40873 169.37771 151.57257 C 169.37771 151.81037 169.17074 152.00355 168.91595 152.00355 C 168.66115 152.00355 168.45418 151.81037 168.45418 151.57257 C 168.45418 151.40873 168.55308 151.2608 168.71224 151.18744 Z M 165.38226 147.17167 C 164.72924 147.17167 164.2 147.66562 164.2 148.2751 C 164.2 148.8846 164.72924 149.37854 165.38226 149.37854 C 165.84665 149.37854 166.2475 149.1279 166.44073 148.76416 L 168.39195 148.76416 L 168.39195 150.58529 C 168.00223 150.76563 167.73368 151.13975 167.73368 151.57318 C 167.73368 152.18267 168.26292 152.67661 168.91595 152.67661 C 169.56897 152.67661 170.0982 152.18267 170.0982 151.57318 C 170.0982 151.13975 169.82966 150.76563 169.43994 150.58529 L 169.43994 147.78605 L 166.44073 147.78605 C 166.24685 147.42232 165.84665 147.17167 165.38226 147.17167 Z" fill="#ccc"/>
        </g>
        <g id="Graphic_169">
          <path d="M 119.5821 166.7566 C 119.70524 166.7566 119.82117 166.80122 119.90828 166.88252 C 120.03273 166.99867 120.07465 167.168 120.01767 167.32512 L 119.94496 167.52624 L 119.72947 167.5941 C 119.681 167.60938 119.63122 167.61672 119.57948 167.61672 C 119.45634 167.61672 119.34106 167.5721 119.2546 167.4914 C 119.16749 167.4101 119.11967 167.30189 119.11967 167.18696 C 119.11967 167.07203 119.16749 166.96383 119.2546 166.88252 C 119.34172 166.80122 119.45896 166.7566 119.5821 166.7566 Z M 124.29673 176.20149 C 124.34782 176.20149 124.39826 176.20943 124.44672 176.2241 L 124.66222 176.29196 L 124.73492 176.49309 C 124.79125 176.6502 124.74933 176.81953 124.62554 176.93568 C 124.53842 177.01699 124.42249 177.06162 124.29935 177.06162 C 124.17621 177.06162 124.06028 177.01699 123.97317 176.93568 C 123.88605 176.85438 123.83824 176.74617 123.83824 176.63125 C 123.83824 176.51632 123.88605 176.40811 123.97317 176.3268 C 124.05831 176.2455 124.1736 176.20149 124.29673 176.20149 Z M 119.5821 166.08414 C 119.27949 166.08414 118.97689 166.19173 118.74633 166.40753 C 118.28456 166.8385 118.28456 167.53725 118.74633 167.96762 C 118.97689 168.1828 119.27818 168.28978 119.58013 168.28978 C 119.70851 168.28978 119.83689 168.27022 119.95937 168.2317 L 126.25778 174.11016 L 124.67532 175.58711 C 124.55218 175.5486 124.4238 175.52904 124.29608 175.52904 C 123.99413 175.52904 123.69217 175.63602 123.46227 175.8512 C 123.0005 176.28218 123.0005 176.98092 123.46227 177.4113 C 123.69283 177.62648 123.99544 177.73468 124.29804 177.73468 C 124.60065 177.73468 124.90325 177.62709 125.13381 177.4113 C 125.46196 177.10502 125.55563 176.66303 125.41677 176.27851 L 127.74002 174.11016 L 120.70083 167.5403 C 120.83968 167.15578 120.74602 166.7138 120.41787 166.40753 C 120.18731 166.19234 119.8847 166.08414 119.5821 166.08414 Z" fill="#ccc"/>
        </g>
        <g id="Graphic_168">
          <path d="M 64.1821 149.07245 C 64.30524 149.07245 64.42117 149.11708 64.508284 149.19839 C 64.63273 149.31454 64.67465 149.48387 64.61767 149.64098 L 64.54496 149.8421 L 64.32947 149.90996 C 64.281 149.92525 64.23122 149.93258 64.17948 149.93258 C 64.05634 149.93258 63.94106 149.88796 63.8546 149.80726 C 63.67448 149.63915 63.67448 149.36589 63.8546 149.19778 C 63.943026 149.1177 64.05896 149.07245 64.1821 149.07245 Z M 69.58644 154.11585 C 69.709576 154.11585 69.824854 154.16047 69.91131 154.24117 C 70.09144 154.40928 70.09144 154.68254 69.91131 154.85065 C 69.8242 154.93196 69.708266 154.97658 69.58513 154.97658 C 69.46199 154.97658 69.346055 154.93196 69.25894 154.85065 C 69.13449 154.7345 69.09257 154.56517 69.14956 154.40806 L 69.22226 154.20693 L 69.43775 154.13908 C 69.48491 154.12318 69.53535 154.11585 69.58644 154.11585 Z M 64.1821 148.4 C 63.87949 148.4 63.576885 148.5076 63.34633 148.72339 C 62.88456 149.15437 62.88456 149.85311 63.34633 150.28348 C 63.576885 150.49866 63.87818 150.60565 64.18013 150.60565 C 64.30851 150.60565 64.43689 150.58608 64.55937 150.54757 L 68.46509 154.19287 C 68.32623 154.5774 68.4199 155.01938 68.74805 155.32565 C 68.978605 155.54083 69.28121 155.64904 69.58382 155.64904 C 69.88642 155.64904 70.18903 155.54144 70.41959 155.32565 C 70.88136 154.89467 70.88136 154.19593 70.41959 153.76556 C 70.18903 153.55037 69.88773 153.4434 69.58578 153.4434 C 69.4574 153.4434 69.329025 153.46296 69.20654 153.50147 L 65.300824 149.85617 C 65.43968 149.47165 65.34602 149.02966 65.01787 148.72339 C 64.78731 148.5082 64.484704 148.4 64.1821 148.4 Z" fill="#ccc"/>
        </g>
      </g>
      <g id="Group_192">
        <g id="Graphic_211">
          <path d="M 156.74417 168.25125 C 156.86336 168.25125 156.97557 168.29887 157.0599 168.38563 C 157.18035 168.50958 157.22092 168.69029 157.16577 168.85795 L 157.0954 169.07257 L 156.88745 169.14498 C 156.84054 169.1613 156.79235 169.16912 156.7429 169.16912 C 156.62372 169.16912 156.51214 169.1215 156.42845 169.03539 C 156.34413 168.94862 156.29785 168.83316 156.29785 168.71051 C 156.29785 168.58787 156.34413 168.4724 156.42845 168.38563 C 156.51277 168.29887 156.62498 168.25125 156.74417 168.25125 Z M 163.11627 177.56895 C 163.23546 177.56895 163.34704 177.61657 163.43072 177.70268 C 163.51504 177.78945 163.56132 177.90491 163.56132 178.02756 C 163.56132 178.1502 163.51504 178.26567 163.43072 178.35244 C 163.3464 178.4392 163.23419 178.48682 163.115 178.48682 C 162.99581 178.48682 162.8836 178.4392 162.79928 178.35244 C 162.67882 178.22849 162.63825 178.04778 162.6934 177.88012 L 162.76378 177.6655 L 162.97236 177.59308 C 163.018 177.57678 163.06682 177.56895 163.11627 177.56895 Z M 156.74417 167.53365 C 156.45127 167.53365 156.15838 167.64846 155.93522 167.87875 C 155.48826 168.33866 155.48826 169.08431 155.93522 169.54358 C 156.15838 169.77321 156.45 169.88737 156.74227 169.88737 C 156.86653 169.88737 156.99079 169.8665 157.10934 169.8254 L 158.85087 171.61744 L 158.85087 174.3789 L 162.0309 177.65115 C 161.8965 178.06148 161.98716 178.53314 162.30478 178.85997 C 162.52794 179.0896 162.82084 179.20507 163.11373 179.20507 C 163.40663 179.20507 163.69953 179.09026 163.92269 178.85997 C 164.36964 178.40006 164.36964 177.6544 163.92269 177.19514 C 163.69953 176.96551 163.4079 176.85135 163.11563 176.85135 C 162.99137 176.85135 162.86712 176.87222 162.74856 176.91332 L 159.86587 173.94703 L 159.86587 171.18558 L 157.827 169.08758 C 157.9614 168.67724 157.87075 168.20558 157.55313 167.87875 C 157.32997 167.64846 157.03707 167.53365 156.74417 167.53365 Z" fill="#ccc"/>
        </g>
        <g id="Graphic_210">
          <path d="M 120.14433 174.29409 C 120.39095 174.29409 120.59128 174.50023 120.59128 174.754 C 120.59128 174.92883 120.49555 175.0867 120.3415 175.165 L 120.14433 175.26545 L 119.94716 175.165 C 119.7931 175.0867 119.69738 174.92883 119.69738 174.754 C 119.69738 174.50023 119.89835 174.29409 120.14433 174.29409 Z M 123.9019 182.85374 C 124.0211 182.85374 124.13267 182.90136 124.21636 182.98747 C 124.30068 183.07424 124.34696 183.1897 124.34696 183.31235 C 124.34696 183.435 124.30068 183.55046 124.21636 183.63723 C 124.13204 183.724 124.01983 183.77161 123.90064 183.77161 C 123.78145 183.77161 123.66924 183.724 123.58492 183.63723 C 123.46446 183.51328 123.42389 183.33257 123.47905 183.16492 L 123.54942 182.9503 L 123.758 182.87788 C 123.80364 182.86157 123.85246 182.85374 123.9019 182.85374 Z M 120.14433 173.57649 C 119.51225 173.57649 119 174.1036 119 174.754 C 119 175.21653 119.25993 175.61577 119.63715 175.80822 L 119.63715 179.66434 L 122.81717 182.9366 C 122.68277 183.34693 122.77343 183.81858 123.09105 184.14542 C 123.31421 184.37505 123.60711 184.49052 123.9 184.49052 C 124.1929 184.49052 124.4858 184.3757 124.70896 184.14542 C 125.15591 183.6855 125.15591 182.93985 124.70896 182.48059 C 124.4858 182.25096 124.19417 182.1368 123.9019 182.1368 C 123.77765 182.1368 123.65339 182.15767 123.53483 182.19877 L 120.65214 179.23247 L 120.65214 175.80887 C 121.02936 175.61643 121.28929 175.21718 121.28929 174.75465 C 121.28866 174.1036 120.7764 173.57649 120.14433 173.57649 Z" fill="#ccc"/>
        </g>
        <g id="Graphic_209">
          <path d="M 139.17004 169.1825 C 139.41665 169.1825 139.61699 169.38864 139.61699 169.64241 C 139.61699 169.81724 139.52126 169.97512 139.3672 170.0534 L 139.17004 170.15386 L 138.97287 170.0534 C 138.81881 169.97512 138.72308 169.81724 138.72308 169.64241 C 138.72308 169.38864 138.92405 169.1825 139.17004 169.1825 Z M 136.88772 187.91184 L 137.08489 188.0123 C 137.23894 188.09058 137.33467 188.24845 137.33467 188.42329 C 137.33467 188.67706 137.13434 188.8832 136.88772 188.8832 C 136.6411 188.8832 136.44077 188.67706 136.44077 188.42329 C 136.44077 188.24845 136.5365 188.09058 136.69055 188.0123 Z M 139.17004 168.4649 C 138.53796 168.4649 138.02571 168.992 138.02571 169.64241 C 138.02571 170.10494 138.28564 170.50418 138.66286 170.69663 L 138.66286 175.29448 L 136.38054 177.643 L 136.38054 187.37037 C 136.00332 187.56282 135.7434 187.96207 135.7434 188.4246 C 135.7434 189.075 136.25565 189.6021 136.88772 189.6021 C 137.5198 189.6021 138.03205 189.075 138.03205 188.4246 C 138.03205 187.96207 137.77212 187.56282 137.3949 187.37037 L 137.3949 178.07485 L 139.67722 175.72635 L 139.67722 170.69598 C 140.05443 170.50353 140.31436 170.10428 140.31436 169.64176 C 140.31436 168.992 139.80211 168.4649 139.17004 168.4649 Z" fill="#ccc"/>
        </g>
        <g id="Graphic_208">
          <path d="M 78.158055 201.23866 C 78.40467 201.23866 78.60501 201.4448 78.60501 201.69857 C 78.60501 201.8734 78.50928 202.03128 78.35522 202.10956 L 78.158055 202.21003 L 77.96089 202.10956 C 77.80683 202.03063 77.7111 201.8734 77.7111 201.69857 C 77.7111 201.4448 77.91207 201.23866 78.158055 201.23866 Z M 75.54227 206.27555 C 75.59172 206.27555 75.64053 206.28403 75.68745 206.2997 L 75.89603 206.3721 L 75.9664 206.58673 C 76.02092 206.75439 75.98035 206.9351 75.86052 207.05904 C 75.776205 207.1458 75.66399 207.19343 75.5448 207.19343 C 75.42562 207.19343 75.3134 207.1458 75.22908 207.05904 C 75.05474 206.87964 75.05474 206.58803 75.22908 206.40863 C 75.3115 206.32252 75.42308 206.27555 75.54227 206.27555 Z M 78.158055 200.52106 C 77.52598 200.52106 77.01373 201.04817 77.01373 201.69857 C 77.01373 202.1611 77.27366 202.56035 77.65087 202.7528 L 77.65087 203.82789 L 75.90934 205.61993 C 75.79015 205.57883 75.66589 205.55795 75.54227 205.55795 C 75.250005 205.55795 74.95774 205.67212 74.73522 205.90175 C 74.28826 206.36166 74.28826 207.10732 74.73522 207.56658 C 74.95838 207.7962 75.25127 207.91168 75.54417 207.91168 C 75.83707 207.91168 76.12996 207.79686 76.35312 207.56658 C 76.67075 207.23975 76.761405 206.76809 76.627 206.35775 L 78.66587 204.25975 L 78.66587 202.75214 C 79.04309 202.5597 79.30302 202.16045 79.30302 201.69792 C 79.30238 201.04817 78.79013 200.52106 78.158055 200.52106 Z" fill="#ccc"/>
        </g>
        <g id="Graphic_206">
          <path d="M 152.57422 147.94001 C 152.6934 147.94001 152.80562 147.98764 152.88994 148.0744 C 153.0104 148.19835 153.05097 148.37905 152.99581 148.54671 L 152.92544 148.76134 L 152.71686 148.83375 C 152.66995 148.85006 152.62177 148.85789 152.57168 148.85789 C 152.4525 148.85789 152.34092 148.81027 152.25723 148.72415 C 152.17291 148.63739 152.12663 148.52192 152.12663 148.39928 C 152.12663 148.27663 152.17291 148.16117 152.25723 148.0744 C 152.34155 147.98764 152.45503 147.94001 152.57422 147.94001 Z M 148.34496 155.32737 C 148.51487 155.32737 148.6683 155.42588 148.74437 155.5844 L 148.842 155.78729 L 148.74437 155.99017 C 148.66766 156.1487 148.51487 156.2472 148.34496 156.2472 C 148.09835 156.2472 147.89801 156.04106 147.89801 155.78729 C 147.89801 155.53352 148.09835 155.32737 148.34496 155.32737 Z M 152.57422 147.22241 C 152.28132 147.22241 151.98843 147.33723 151.76527 147.56751 C 151.31831 148.02743 151.31831 148.77308 151.76527 149.23234 C 151.98843 149.46198 152.28006 149.57614 152.57232 149.57614 C 152.69658 149.57614 152.82084 149.55526 152.93939 149.51417 L 155.61224 152.26453 L 152.69594 155.2654 L 149.36884 155.2654 C 149.18181 154.87724 148.79382 154.60977 148.34433 154.60977 C 147.71226 154.60977 147.2 155.13688 147.2 155.78729 C 147.2 156.4377 147.71226 156.9648 148.34433 156.9648 C 148.79382 156.9648 149.18181 156.69733 149.36884 156.30918 L 153.11627 156.30918 L 157.04692 152.26453 L 153.65705 148.77634 C 153.79145 148.366 153.7008 147.89435 153.38317 147.56751 C 153.16001 147.33788 152.86712 147.22241 152.57422 147.22241 Z" fill="#ccc"/>
        </g>
        <g id="Graphic_205">
          <path d="M 71.21723 150.1176 C 71.336415 150.1176 71.44863 150.16522 71.53295 150.25199 C 71.6534 150.37594 71.69398 150.55664 71.63882 150.7243 L 71.56845 150.93893 L 71.35987 151.01134 C 71.31296 151.02765 71.264776 151.03548 71.21469 151.03548 C 71.0955 151.03548 70.98392 150.98785 70.90024 150.90174 C 70.725896 150.72234 70.725896 150.43074 70.90024 150.25134 C 70.98583 150.16588 71.09804 150.1176 71.21723 150.1176 Z M 74.16585 153.15109 C 74.28504 153.15109 74.39662 153.19871 74.4803 153.28482 C 74.65465 153.46422 74.65465 153.75583 74.4803 153.93523 C 74.395985 154.022 74.28377 154.06962 74.16458 154.06962 C 74.0454 154.06962 73.93318 154.022 73.84886 153.93523 C 73.72841 153.81128 73.68783 153.63058 73.74299 153.46292 L 73.81336 153.2483 L 74.02194 153.17588 C 74.067585 153.15892 74.1164 153.15109 74.16585 153.15109 Z M 71.21723 149.4 C 70.92433 149.4 70.63143 149.51482 70.40827 149.7451 C 69.96132 150.20502 69.96132 150.95067 70.40827 151.40993 C 70.63143 151.63956 70.92306 151.75373 71.215325 151.75373 C 71.339585 151.75373 71.46384 151.73285 71.5824 151.69175 L 73.08048 153.23329 C 72.94608 153.64362 73.03674 154.11528 73.35436 154.44212 C 73.57752 154.67175 73.87042 154.78722 74.16332 154.78722 C 74.45621 154.78722 74.74911 154.6724 74.97227 154.44212 C 75.41922 153.9822 75.41922 153.23655 74.97227 152.77729 C 74.74911 152.54765 74.45748 152.43349 74.16522 152.43349 C 74.04096 152.43349 73.9167 152.45437 73.798145 152.49546 L 72.30006 150.95393 C 72.43446 150.5436 72.3438 150.07194 72.02618 149.7451 C 71.80302 149.51547 71.510125 149.4 71.21723 149.4 Z" fill="#ccc"/>
        </g>
        <g id="Graphic_204">
          <path d="M 69.87193 170.21877 C 69.99112 170.21877 70.10333 170.2664 70.18765 170.35316 C 70.36199 170.53256 70.36199 170.82417 70.18765 171.00357 C 70.103965 171.08968 69.992385 171.1373 69.8732 171.1373 C 69.82375 171.1373 69.77493 171.12882 69.72802 171.11316 L 69.51944 171.04075 L 69.44907 170.82612 C 69.394545 170.65847 69.43512 170.47776 69.55494 170.35381 C 69.64053 170.26705 69.75274 170.21877 69.87193 170.21877 Z M 69.87383 175.60077 C 69.99302 175.60077 70.1046 175.6484 70.18828 175.7345 C 70.36263 175.9139 70.36263 176.2055 70.18828 176.3849 C 70.103965 176.47167 69.99175 176.5193 69.87256 176.5193 C 69.75338 176.5193 69.64116 176.47167 69.55684 176.3849 C 69.43639 176.26096 69.39581 176.08026 69.45097 175.9126 L 69.52134 175.69797 L 69.72992 175.62556 C 69.775565 175.6086 69.82438 175.60077 69.87383 175.60077 Z M 69.87193 169.50117 C 69.57903 169.50117 69.286135 169.616 69.062976 169.84627 C 68.74535 170.1731 68.654695 170.64477 68.7891 171.0551 L 67.89139 171.97885 L 67.89139 174.75987 L 68.7891 175.68362 C 68.654695 176.09395 68.74535 176.56561 69.062976 176.89245 C 69.286135 177.12208 69.57903 177.23755 69.87193 177.23755 C 70.16483 177.23755 70.45772 177.12273 70.68088 176.89245 C 71.12784 176.43253 71.12784 175.68688 70.68088 175.22762 C 70.45772 174.99798 70.16546 174.88382 69.87383 174.88382 C 69.74957 174.88382 69.62531 174.9047 69.50676 174.9458 L 68.90638 174.328 L 68.90638 172.41202 L 69.50676 171.79423 C 69.62595 171.83533 69.75021 171.8562 69.87383 171.8562 C 70.166095 171.8562 70.45836 171.74204 70.68088 171.5124 C 71.12784 171.0525 71.12784 170.30684 70.68088 169.84758 C 70.45772 169.61664 70.16483 169.50117 69.87193 169.50117 Z" fill="#ccc"/>
        </g>
        <g id="Graphic_202">
          <path d="M 167.96602 195.84457 C 168.0852 195.84457 168.19742 195.8922 168.28174 195.97896 C 168.45608 196.15836 168.45608 196.44996 168.28174 196.62936 C 168.19805 196.71547 168.08647 196.7631 167.96729 196.7631 C 167.91784 196.7631 167.86902 196.75462 167.8221 196.73896 L 167.61353 196.66655 L 167.54316 196.45192 C 167.48863 196.28426 167.5292 196.10356 167.64903 195.9796 C 167.73462 195.89284 167.84683 195.84457 167.96602 195.84457 Z M 163.3437 203.17648 L 163.54086 203.27694 C 163.69492 203.35588 163.79065 203.5131 163.79065 203.68858 C 163.79065 203.94235 163.59031 204.1485 163.3437 204.1485 C 163.09708 204.1485 162.89674 203.94235 162.89674 203.68858 C 162.89674 203.51375 162.99247 203.35588 163.14653 203.27694 Z M 167.96602 195.12697 C 167.67312 195.12697 167.38022 195.24179 167.15706 195.47207 C 166.83944 195.7989 166.74878 196.27056 166.88319 196.6809 L 162.83715 200.84428 L 162.83715 202.63436 C 162.45993 202.8268 162.2 203.22606 162.2 203.68858 C 162.2 204.33899 162.71226 204.8661 163.34433 204.8661 C 163.9764 204.8661 164.48866 204.33899 164.48866 203.68858 C 164.48866 203.22606 164.22873 202.8268 163.85151 202.63436 L 163.85151 201.2768 L 167.60085 197.41872 C 167.72003 197.45982 167.8443 197.4807 167.96792 197.4807 C 168.26018 197.4807 168.55245 197.36653 168.77497 197.1369 C 169.22193 196.67698 169.22193 195.93133 168.77497 195.47207 C 168.55181 195.24244 168.25891 195.12697 167.96602 195.12697 Z" fill="#ccc"/>
        </g>
        <g id="Graphic_200">
          <path d="M 74.16332 173.01545 C 74.2825 173.01545 74.39472 173.06308 74.47904 173.14984 C 74.65338 173.32924 74.65338 173.62085 74.47904 173.80025 C 74.39535 173.88636 74.28377 173.93398 74.16458 173.93398 C 74.11513 173.93398 74.06632 173.9255 74.0194 173.90984 L 73.810825 173.83743 L 73.74045 173.6228 C 73.68593 173.45515 73.72651 173.27444 73.84633 173.1505 C 73.93191 173.06373 74.04413 173.01545 74.16332 173.01545 Z M 64.74433 194.4384 L 64.941495 194.53886 C 65.09555 194.6178 65.19128 194.77502 65.19128 194.9505 C 65.19128 195.20427 64.990945 195.41042 64.74433 195.41042 C 64.49771 195.41042 64.297375 195.20427 64.297375 194.9505 C 64.297375 194.77567 64.393105 194.6178 64.54716 194.53886 Z M 74.16332 172.29785 C 73.87042 172.29785 73.57752 172.41267 73.35436 172.64295 C 73.03674 172.96979 72.94608 173.44145 73.08048 173.85178 L 72.18277 174.77553 L 72.18277 179.16658 L 67.91548 179.16658 L 64.23715 182.9516 L 64.23715 193.89694 C 63.85993 194.08939 63.6 194.48863 63.6 194.95116 C 63.6 195.60156 64.112254 196.12867 64.74433 196.12867 C 65.3764 196.12867 65.888656 195.60156 65.888656 194.95116 C 65.888656 194.48863 65.628725 194.08939 65.25151 193.89694 L 65.25151 183.3841 L 68.335805 180.21036 L 73.19777 180.21036 L 73.19777 175.2074 L 73.798145 174.5896 C 73.91733 174.6307 74.04159 174.65158 74.16522 174.65158 C 74.45748 174.65158 74.74974 174.53742 74.97227 174.30779 C 75.41922 173.84787 75.41922 173.10222 74.97227 172.64295 C 74.74911 172.41332 74.45621 172.29785 74.16332 172.29785 Z" fill="#ccc"/>
        </g>
        <g id="Graphic_199">
          <path d="M 125.39607 208.9176 C 125.64269 208.9176 125.84303 209.12375 125.84303 209.37752 C 125.84303 209.63129 125.64269 209.83743 125.39607 209.83743 C 125.22617 209.83743 125.07274 209.73893 124.99667 209.5804 L 124.89903 209.37752 L 124.99667 209.17463 C 125.07274 209.0161 125.22617 208.9176 125.39607 208.9176 Z M 122.18308 216.43674 C 122.30227 216.43674 122.41385 216.48436 122.49753 216.57047 C 122.67188 216.74987 122.67188 217.04148 122.49753 217.22088 C 122.41321 217.30764 122.301 217.35526 122.18181 217.35526 C 122.06262 217.35526 121.95041 217.30764 121.86609 217.22088 C 121.74564 217.09693 121.70506 216.91622 121.76022 216.74857 L 121.83059 216.53394 L 122.03917 216.46153 C 122.08481 216.44457 122.13363 216.43674 122.18308 216.43674 Z M 125.39607 208.2 C 124.94658 208.2 124.55859 208.46747 124.37157 208.85563 L 121.76529 208.85563 L 120.2 210.4663 L 120.2 215.59584 L 121.09771 216.5196 C 120.96331 216.92992 121.05397 217.40158 121.37159 217.72842 C 121.59475 217.95805 121.88765 218.07352 122.18054 218.07352 C 122.47344 218.07352 122.76634 217.9587 122.9895 217.72842 C 123.43645 217.2685 123.43645 216.52285 122.9895 216.06359 C 122.76634 215.83395 122.47408 215.7198 122.18245 215.7198 C 122.05819 215.7198 121.93393 215.74067 121.81537 215.78177 L 121.215 215.16398 L 121.215 210.89948 L 122.18562 209.90071 L 124.37157 209.90071 C 124.55859 210.28887 124.94658 210.55634 125.39607 210.55634 C 126.02815 210.55634 126.5404 210.02923 126.5404 209.37882 C 126.5404 208.72842 126.02815 208.2 125.39607 208.2 Z" fill="#ccc"/>
        </g>
        <g id="Graphic_197">
          <path d="M 122.3638 186.45054 C 122.61041 186.45054 122.81075 186.6567 122.81075 186.91046 C 122.81075 187.0853 122.71502 187.24316 122.56096 187.32145 L 122.3638 187.4219 L 122.16663 187.32145 C 122.01257 187.2425 121.91684 187.0853 121.91684 186.91046 C 121.91684 186.6567 122.11781 186.45054 122.3638 186.45054 Z M 118.60685 203.22997 C 118.6563 203.22997 118.70512 203.23845 118.75203 203.2541 L 118.96061 203.32652 L 119.03098 203.54115 C 119.0855 203.7088 119.04493 203.8895 118.9251 204.01346 C 118.84079 204.10022 118.72857 204.14784 118.60939 204.14784 C 118.4902 204.14784 118.37799 204.10022 118.29367 204.01346 C 118.20935 203.9267 118.16307 203.81122 118.16307 203.68858 C 118.16307 203.56594 118.20935 203.45047 118.29367 203.3637 C 118.37608 203.27694 118.48766 203.22997 118.60685 203.22997 Z M 122.3638 185.73294 C 121.73172 185.73294 121.21947 186.26005 121.21947 186.91046 C 121.21947 187.37298 121.4794 187.77223 121.85661 187.96468 L 121.85661 199.60805 L 118.97392 202.57434 C 118.85474 202.53325 118.73048 202.51237 118.60685 202.51237 C 118.31459 202.51237 118.02232 202.62653 117.7998 202.85617 C 117.35285 203.31608 117.35285 204.06173 117.7998 204.521 C 118.02296 204.75063 118.31586 204.8661 118.60875 204.8661 C 118.90165 204.8661 119.19455 204.75128 119.4177 204.521 C 119.73533 204.19416 119.82599 203.7225 119.69158 203.31217 L 122.87161 200.03991 L 122.87161 187.96402 C 123.24883 187.77158 123.50876 187.37233 123.50876 186.9098 C 123.50812 186.26005 122.99587 185.73294 122.3638 185.73294 Z" fill="#ccc"/>
        </g>
        <g id="Graphic_196">
          <path d="M 58.93774 192.6691 C 59.056926 192.6691 59.16914 192.71673 59.25346 192.8035 C 59.373914 192.92744 59.41449 193.10815 59.35933 193.2758 L 59.28896 193.49043 L 59.08038 193.56284 C 59.03347 193.57915 58.98529 193.58698 58.9352 193.58698 C 58.816015 193.58698 58.704435 193.53936 58.62075 193.45325 C 58.44641 193.27385 58.44641 192.98224 58.62075 192.80284 C 58.70634 192.71738 58.81855 192.6691 58.93774 192.6691 Z M 69.874465 203.92237 C 69.99365 203.92237 70.10523 203.97 70.18892 204.0561 C 70.36326 204.2355 70.36326 204.5271 70.18892 204.7065 C 70.1046 204.79327 69.992385 204.8409 69.8732 204.8409 C 69.75401 204.8409 69.6418 204.79327 69.55748 204.7065 C 69.43702 204.58256 69.39645 204.40185 69.4516 204.2342 L 69.521975 204.01957 L 69.73055 203.94716 C 69.7762 203.9302 69.825015 203.92237 69.874465 203.92237 Z M 58.93774 191.9515 C 58.64484 191.9515 58.351944 192.06632 58.128785 192.2966 C 57.68183 192.75652 57.68183 193.50217 58.128785 193.96144 C 58.351944 194.19107 58.64357 194.30523 58.93584 194.30523 C 59.060096 194.30523 59.184355 194.28436 59.30291 194.24326 L 68.7891 204.00456 C 68.654695 204.4149 68.74535 204.88656 69.062976 205.2134 C 69.286135 205.44302 69.57903 205.5585 69.87193 205.5585 C 70.16483 205.5585 70.45772 205.44368 70.68088 205.2134 C 71.12784 204.75348 71.12784 204.00783 70.68088 203.54856 C 70.45772 203.31893 70.166095 203.20477 69.87383 203.20477 C 69.74957 203.20477 69.62531 203.22564 69.50676 203.26674 L 60.02057 193.50544 C 60.15497 193.0951 60.064315 192.62344 59.74669 192.2966 C 59.52353 192.06697 59.230636 191.9515 58.93774 191.9515 Z" fill="#ccc"/>
        </g>
        <g id="Graphic_195">
          <path d="M 105.54433 211.80492 C 105.71423 211.80492 105.86766 211.90342 105.94373 212.06195 L 106.04137 212.26483 L 105.94373 212.46772 C 105.86702 212.62624 105.71423 212.72475 105.54433 212.72475 C 105.29771 212.72475 105.09738 212.5186 105.09738 212.26483 C 105.09738 212.01106 105.29771 211.80492 105.54433 211.80492 Z M 108.96463 215.27223 L 109.1618 215.3727 C 109.31585 215.45163 109.41159 215.60885 109.41159 215.78368 C 109.41159 216.03745 109.21125 216.2436 108.96463 216.2436 C 108.71801 216.2436 108.51768 216.03745 108.51768 215.78368 C 108.51768 215.60885 108.61341 215.45097 108.76746 215.3727 Z M 105.54433 211.08732 C 104.91225 211.08732 104.4 211.61443 104.4 212.26483 C 104.4 212.91524 104.91225 213.44235 105.54433 213.44235 C 105.99382 213.44235 106.38181 213.17488 106.56883 212.78672 L 108.45745 212.78672 L 108.45745 214.73011 C 108.08023 214.92256 107.8203 215.3218 107.8203 215.78433 C 107.8203 216.43474 108.33256 216.96185 108.96463 216.96185 C 109.5967 216.96185 110.10896 216.43474 110.10896 215.78433 C 110.10896 215.3218 109.84903 214.92256 109.47181 214.73011 L 109.47181 211.74294 L 106.56883 211.74294 C 106.38118 211.35479 105.99382 211.08732 105.54433 211.08732 Z" fill="#ccc"/>
        </g>
        <g id="Graphic_194">
          <path d="M 136.00477 198.7176 C 136.12395 198.7176 136.23617 198.76522 136.32049 198.852 C 136.44094 198.97594 136.48152 199.15664 136.42636 199.3243 L 136.35599 199.53893 L 136.14741 199.61134 C 136.1005 199.62765 136.05231 199.63548 136.00223 199.63548 C 135.88304 199.63548 135.77146 199.58785 135.68778 199.50174 C 135.60346 199.41498 135.55718 199.2995 135.55718 199.17687 C 135.55718 199.05422 135.60346 198.93875 135.68778 198.852 C 135.7721 198.76522 135.88558 198.7176 136.00477 198.7176 Z M 140.56813 208.7966 C 140.61758 208.7966 140.6664 208.8051 140.71331 208.82075 L 140.92189 208.89316 L 140.99226 209.10779 C 141.04678 209.27544 141.0062 209.45615 140.88638 209.5801 C 140.80207 209.66686 140.68985 209.71448 140.57066 209.71448 C 140.45148 209.71448 140.33926 209.66686 140.25494 209.5801 C 140.17062 209.49333 140.12434 209.37786 140.12434 209.25522 C 140.12434 209.13258 140.17062 209.0171 140.25494 208.93034 C 140.33736 208.84358 140.44894 208.7966 140.56813 208.7966 Z M 136.00477 198 C 135.71187 198 135.41897 198.11482 135.19581 198.3451 C 134.74886 198.80502 134.74886 199.55067 135.19581 200.00993 C 135.41897 200.23956 135.7106 200.35373 136.00286 200.35373 C 136.12712 200.35373 136.25138 200.33285 136.36994 200.29175 L 142.46625 206.56488 L 140.93457 208.14098 C 140.81538 208.09989 140.69112 208.079 140.5675 208.079 C 140.27523 208.079 139.98297 208.19317 139.76044 208.4228 C 139.31349 208.88272 139.31349 209.62837 139.76044 210.08764 C 139.9836 210.31727 140.2765 210.43274 140.5694 210.43274 C 140.8623 210.43274 141.15519 210.31792 141.37835 210.08764 C 141.69597 209.7608 141.78663 209.28914 141.65223 208.8788 L 143.90094 206.56488 L 137.0876 199.55393 C 137.222 199.1436 137.13134 198.67194 136.81372 198.3451 C 136.59056 198.11547 136.29766 198 136.00477 198 Z" fill="#ccc"/>
        </g>
        <g id="Graphic_193">
          <path d="M 57.94417 196.84627 C 58.06336 196.84627 58.17557 196.8939 58.25989 196.98066 C 58.380346 197.1046 58.42092 197.28531 58.365764 197.45297 L 58.29539 197.6676 L 58.086814 197.74 C 58.0399 197.75632 57.99172 197.76415 57.941634 197.76415 C 57.822446 197.76415 57.710866 197.71652 57.62718 197.63041 C 57.45284 197.45101 57.45284 197.1594 57.62718 196.98 C 57.71277 196.89455 57.82498 196.84627 57.94417 196.84627 Z M 63.17511 202.22827 C 63.2943 202.22827 63.40588 202.2759 63.48956 202.362 C 63.663905 202.5414 63.663905 202.833 63.48956 203.0124 C 63.40524 203.09917 63.29303 203.1468 63.17384 203.1468 C 63.05465 203.1468 62.94244 203.09917 62.85812 203.0124 C 62.737665 202.88846 62.69709 202.70775 62.75225 202.5401 L 62.82262 202.32547 L 63.0312 202.25306 C 63.07684 202.2361 63.12566 202.22827 63.17511 202.22827 Z M 57.94417 196.12867 C 57.65127 196.12867 57.358376 196.2435 57.135216 196.47377 C 56.68826 196.9337 56.68826 197.67934 57.135216 198.1386 C 57.358376 198.36823 57.650005 198.4824 57.94227 198.4824 C 58.06653 198.4824 58.19079 198.46152 58.30934 198.42042 L 62.08974 202.31046 C 61.95534 202.7208 62.046 203.19246 62.36362 203.5193 C 62.58678 203.74892 62.879676 203.8644 63.17257 203.8644 C 63.46547 203.8644 63.75837 203.74958 63.98153 203.5193 C 64.42848 203.05938 64.42848 202.31373 63.98153 201.85446 C 63.75837 201.62483 63.46674 201.51067 63.174475 201.51067 C 63.050216 201.51067 62.92596 201.53154 62.8074 201.57264 L 59.027 197.6826 C 59.161404 197.27227 59.070746 196.8006 58.753124 196.47377 C 58.529964 196.24414 58.23707 196.12867 57.94417 196.12867 Z" fill="#ccc"/>
        </g>
      </g>
    </g>
  </g>
</svg>
